<svg xmlns="http://www.w3.org/2000/svg" xmlns:xlink="http://www.w3.org/1999/xlink" width="500" zoomAndPan="magnify" viewBox="0 0 375 374.999991" height="450" preserveAspectRatio="xMidYMid meet" version="1.0"><rect x="-37.5" width="450" fill="#ffffff" y="-37.499999" height="450" fill-opacity="1"/><rect x="-37.5" width="450" fill="#14073d" y="-37.499999" height="449.999989" fill-opacity="1"/><path fill="#4547ff" d="M 194.824219 187.101562 C 165.730469 197.691406 138.878906 205.523438 119.429688 209.496094 C 101.539062 213.140625 89.921875 213.53125 88.5625 209.796875 C 87.25 206.195312 95.710938 199.402344 110.695312 191.128906 C 112.1875 190.304688 113.035156 188.648438 112.800781 186.957031 C 112.796875 186.929688 112.792969 186.898438 112.789062 186.871094 C 112.410156 184.0625 109.40625 182.4375 106.863281 183.683594 C 68.214844 202.613281 44.273438 219.898438 47.414062 228.527344 C 50.628906 237.359375 81.480469 234.890625 124.90625 223.878906 C 126.480469 223.480469 128.152344 224.027344 129.164062 225.300781 C 149.660156 251.148438 185.140625 262.253906 217.84375 250.347656 C 259.175781 235.304688 268.839844 205.171875 269.796875 182.878906 C 270.347656 170.027344 266.136719 161.148438 194.824219 187.101562 Z M 194.824219 187.101562 " fill-opacity="1" fill-rule="nonzero"/><path fill="#4547ff" d="M 334.371094 124.082031 C 331.089844 115.058594 299.046875 117.820312 254.230469 129.40625 C 234.015625 102.058594 197.515625 90.027344 163.9375 102.25 C 129.277344 114.863281 117.226562 139.054688 113.5 158.824219 C 110.902344 172.582031 113.058594 184.898438 184.550781 158.878906 C 213.191406 148.453125 239.648438 140.707031 259.023438 136.683594 C 277.425781 132.855469 289.429688 132.382812 290.8125 136.183594 C 292.027344 139.515625 284.875 145.578125 271.925781 153.03125 C 269.054688 154.679688 267.609375 157.992188 268.246094 161.242188 C 268.257812 161.292969 268.265625 161.347656 268.277344 161.398438 C 269.246094 166.390625 274.765625 169.027344 279.308594 166.75 C 315.367188 148.675781 337.390625 132.371094 334.371094 124.082031 Z M 334.371094 124.082031 " fill-opacity="1" fill-rule="nonzero"/></svg>