<?xml version="1.0" encoding="UTF-8" standalone="no"?>
<!DOCTYPE svg PUBLIC "-//W3C//DTD SVG 1.1//EN"
 "http://www.w3.org/Graphics/SVG/1.1/DTD/svg11.dtd">
<!-- Generated by graphviz version 12.2.0 (20241103.1931)
 -->
<!-- Title: G Pages: 1 -->
<svg width="1143pt" height="618pt"
 viewBox="0.00 0.00 1143.42 617.90" xmlns="http://www.w3.org/2000/svg" xmlns:xlink="http://www.w3.org/1999/xlink">
<g id="graph0" class="graph" transform="scale(1 1) rotate(0) translate(4 613.9)">
<title>G</title><style>.edge>path:hover{stroke-width:8}</style>
<polygon fill="white" stroke="none" points="-4,4 -4,-613.9 1139.42,-613.9 1139.42,4 -4,4"/>
<!-- gui_imageloadingmanager -->
<g id="node1" class="node">
<title>gui_imageloadingmanager</title><style>.edge>path:hover{stroke-width:8}</style>
<ellipse fill="#b83d3d" stroke="black" cx="78.14" cy="-273.34" rx="78.14" ry="22.63"/>
<text text-anchor="middle" x="78.14" y="-275.84" font-family="Helvetica,sans-Serif" font-size="10.00" fill="#ffffff">gui.</text>
<text text-anchor="middle" x="78.14" y="-263.84" font-family="Helvetica,sans-Serif" font-size="10.00" fill="#ffffff">imageloadingmanager</text>
</g>
<!-- gui_maingui -->
<g id="node4" class="node">
<title>gui_maingui</title><style>.edge>path:hover{stroke-width:8}</style>
<ellipse fill="#964040" stroke="black" cx="622.14" cy="-18" rx="39.39" ry="18"/>
<text text-anchor="middle" x="622.14" y="-14.5" font-family="Helvetica,sans-Serif" font-size="10.00" fill="#ffffff">gui.maingui</text>
</g>
<!-- gui_imageloadingmanager&#45;&gt;gui_maingui -->
<g id="edge1" class="edge">
<title>gui_imageloadingmanager&#45;&gt;gui_maingui</title><style>.edge>path:hover{stroke-width:8}</style>
<path fill="none" stroke="black" d="M60.08,-251.04C39.12,-223.62 10.51,-175.74 36.14,-144 103.53,-60.52 442.78,-30.42 572.02,-21.87"/>
<polygon fill="#b83d3d" stroke="black" points="571.88,-25.38 581.63,-21.25 571.43,-18.4 571.88,-25.38"/>
</g>
<!-- gui_items -->
<g id="node2" class="node">
<title>gui_items</title><style>.edge>path:hover{stroke-width:8}</style>
<ellipse fill="#c04040" stroke="black" cx="306.14" cy="-371.56" rx="33.52" ry="18"/>
<text text-anchor="middle" x="306.14" y="-368.06" font-family="Helvetica,sans-Serif" font-size="10.00" fill="#ffffff">gui.items</text>
</g>
<!-- gui_views_imageviewrasterdata -->
<g id="node9" class="node">
<title>gui_views_imageviewrasterdata</title><style>.edge>path:hover{stroke-width:8}</style>
<ellipse fill="#a13535" stroke="black" cx="244.14" cy="-175.11" rx="74.95" ry="31.11"/>
<text text-anchor="middle" x="244.14" y="-183.61" font-family="Helvetica,sans-Serif" font-size="10.00" fill="#ffffff">gui.</text>
<text text-anchor="middle" x="244.14" y="-171.61" font-family="Helvetica,sans-Serif" font-size="10.00" fill="#ffffff">views.</text>
<text text-anchor="middle" x="244.14" y="-159.61" font-family="Helvetica,sans-Serif" font-size="10.00" fill="#ffffff">imageviewrasterdata</text>
</g>
<!-- gui_items&#45;&gt;gui_views_imageviewrasterdata -->
<g id="edge2" class="edge">
<title>gui_items&#45;&gt;gui_views_imageviewrasterdata</title><style>.edge>path:hover{stroke-width:8}</style>
<path fill="none" stroke="black" d="M300.63,-353.31C290.95,-322.93 270.61,-259.14 257.16,-216.97"/>
<polygon fill="#c04040" stroke="black" points="260.57,-216.13 254.2,-207.66 253.9,-218.26 260.57,-216.13"/>
</g>
<!-- gui_items_tripleimagehistogram -->
<g id="node3" class="node">
<title>gui_items_tripleimagehistogram</title><style>.edge>path:hover{stroke-width:8}</style>
<ellipse fill="#c24747" stroke="black" cx="347.14" cy="-469.79" rx="74.95" ry="31.11"/>
<text text-anchor="middle" x="347.14" y="-478.29" font-family="Helvetica,sans-Serif" font-size="10.00" fill="#ffffff">gui.</text>
<text text-anchor="middle" x="347.14" y="-466.29" font-family="Helvetica,sans-Serif" font-size="10.00" fill="#ffffff">items.</text>
<text text-anchor="middle" x="347.14" y="-454.29" font-family="Helvetica,sans-Serif" font-size="10.00" fill="#ffffff">tripleimagehistogram</text>
</g>
<!-- gui_items_tripleimagehistogram&#45;&gt;gui_items -->
<g id="edge3" class="edge">
<title>gui_items_tripleimagehistogram&#45;&gt;gui_items</title><style>.edge>path:hover{stroke-width:8}</style>
<path fill="none" stroke="black" d="M334.39,-438.87C329.1,-426.45 323,-412.14 317.82,-399.99"/>
<polygon fill="#c24747" stroke="black" points="321.11,-398.79 313.97,-390.96 314.67,-401.53 321.11,-398.79"/>
</g>
<!-- gui_views -->
<g id="node5" class="node">
<title>gui_views</title><style>.edge>path:hover{stroke-width:8}</style>
<ellipse fill="#a83838" stroke="black" cx="413.14" cy="-90" rx="34.43" ry="18"/>
<text text-anchor="middle" x="413.14" y="-86.5" font-family="Helvetica,sans-Serif" font-size="10.00" fill="#ffffff">gui.views</text>
</g>
<!-- gui_views&#45;&gt;gui_maingui -->
<g id="edge4" class="edge">
<title>gui_views&#45;&gt;gui_maingui</title><style>.edge>path:hover{stroke-width:8}</style>
<path fill="none" stroke="black" d="M441.76,-79.41C477.6,-67.41 539.28,-46.75 580.39,-32.98"/>
<polygon fill="#a83838" stroke="black" points="581.33,-36.36 589.71,-29.86 579.11,-29.72 581.33,-36.36"/>
</g>
<!-- gui_views_baseimageview -->
<g id="node6" class="node">
<title>gui_views_baseimageview</title><style>.edge>path:hover{stroke-width:8}</style>
<ellipse fill="#d92626" stroke="black" cx="431.14" cy="-273.34" rx="59.04" ry="31.11"/>
<text text-anchor="middle" x="431.14" y="-281.84" font-family="Helvetica,sans-Serif" font-size="10.00" fill="#ffffff">gui.</text>
<text text-anchor="middle" x="431.14" y="-269.84" font-family="Helvetica,sans-Serif" font-size="10.00" fill="#ffffff">views.</text>
<text text-anchor="middle" x="431.14" y="-257.84" font-family="Helvetica,sans-Serif" font-size="10.00" fill="#ffffff">baseimageview</text>
</g>
<!-- gui_views_imageviewbandeditor -->
<g id="node7" class="node">
<title>gui_views_imageviewbandeditor</title><style>.edge>path:hover{stroke-width:8}</style>
<ellipse fill="#c04040" stroke="black" cx="413.14" cy="-175.11" rx="76.01" ry="31.11"/>
<text text-anchor="middle" x="413.14" y="-183.61" font-family="Helvetica,sans-Serif" font-size="10.00" fill="#ffffff">gui.</text>
<text text-anchor="middle" x="413.14" y="-171.61" font-family="Helvetica,sans-Serif" font-size="10.00" fill="#ffffff">views.</text>
<text text-anchor="middle" x="413.14" y="-159.61" font-family="Helvetica,sans-Serif" font-size="10.00" fill="#ffffff">imageviewbandeditor</text>
</g>
<!-- gui_views_baseimageview&#45;&gt;gui_views_imageviewbandeditor -->
<g id="edge5" class="edge">
<title>gui_views_baseimageview&#45;&gt;gui_views_imageviewbandeditor</title><style>.edge>path:hover{stroke-width:8}</style>
<path fill="none" stroke="black" d="M425.44,-241.89C424,-234.18 422.42,-225.77 420.9,-217.62"/>
<polygon fill="#d92626" stroke="black" points="424.35,-217.03 419.07,-207.85 417.47,-218.32 424.35,-217.03"/>
</g>
<!-- gui_views_baseimageview&#45;&gt;gui_views_imageviewrasterdata -->
<g id="edge6" class="edge">
<title>gui_views_baseimageview&#45;&gt;gui_views_imageviewrasterdata</title><style>.edge>path:hover{stroke-width:8}</style>
<path fill="none" stroke="black" d="M389.63,-250.98C363.36,-237.46 329.05,-219.81 300.34,-205.04"/>
<polygon fill="#d92626" stroke="black" points="302.29,-202.1 291.79,-200.64 299.08,-208.32 302.29,-202.1"/>
</g>
<!-- gui_views_imageviewstretcheditor -->
<g id="node11" class="node">
<title>gui_views_imageviewstretcheditor</title><style>.edge>path:hover{stroke-width:8}</style>
<ellipse fill="#c04040" stroke="black" cx="589.14" cy="-175.11" rx="82.38" ry="31.11"/>
<text text-anchor="middle" x="589.14" y="-183.61" font-family="Helvetica,sans-Serif" font-size="10.00" fill="#ffffff">gui.</text>
<text text-anchor="middle" x="589.14" y="-171.61" font-family="Helvetica,sans-Serif" font-size="10.00" fill="#ffffff">views.</text>
<text text-anchor="middle" x="589.14" y="-159.61" font-family="Helvetica,sans-Serif" font-size="10.00" fill="#ffffff">imageviewstretcheditor</text>
</g>
<!-- gui_views_baseimageview&#45;&gt;gui_views_imageviewstretcheditor -->
<g id="edge7" class="edge">
<title>gui_views_baseimageview&#45;&gt;gui_views_imageviewstretcheditor</title><style>.edge>path:hover{stroke-width:8}</style>
<path fill="none" stroke="black" d="M468.98,-249.29C489.34,-236.89 514.76,-221.41 536.96,-207.89"/>
<polygon fill="#d92626" stroke="black" points="538.57,-211 545.29,-202.81 534.93,-205.03 538.57,-211"/>
</g>
<!-- gui_views_imageviewbandeditor&#45;&gt;gui_views -->
<g id="edge8" class="edge">
<title>gui_views_imageviewbandeditor&#45;&gt;gui_views</title><style>.edge>path:hover{stroke-width:8}</style>
<path fill="none" stroke="black" d="M413.14,-143.64C413.14,-135.85 413.14,-127.51 413.14,-119.81"/>
<polygon fill="#c04040" stroke="black" points="416.64,-119.94 413.14,-109.94 409.64,-119.94 416.64,-119.94"/>
</g>
<!-- gui_views_imageviewlist -->
<g id="node8" class="node">
<title>gui_views_imageviewlist</title><style>.edge>path:hover{stroke-width:8}</style>
<ellipse fill="#b83d3d" stroke="black" cx="98.14" cy="-175.11" rx="53.21" ry="31.11"/>
<text text-anchor="middle" x="98.14" y="-183.61" font-family="Helvetica,sans-Serif" font-size="10.00" fill="#ffffff">gui.</text>
<text text-anchor="middle" x="98.14" y="-171.61" font-family="Helvetica,sans-Serif" font-size="10.00" fill="#ffffff">views.</text>
<text text-anchor="middle" x="98.14" y="-159.61" font-family="Helvetica,sans-Serif" font-size="10.00" fill="#ffffff">imageviewlist</text>
</g>
<!-- gui_views_imageviewlist&#45;&gt;gui_views -->
<g id="edge9" class="edge">
<title>gui_views_imageviewlist&#45;&gt;gui_views</title><style>.edge>path:hover{stroke-width:8}</style>
<path fill="none" stroke="black" d="M136.88,-153.5C144.45,-149.99 152.44,-146.63 160.14,-144 231.25,-119.7 317.58,-104.51 368.79,-96.91"/>
<polygon fill="#b83d3d" stroke="black" points="369.21,-100.39 378.6,-95.49 368.2,-93.46 369.21,-100.39"/>
</g>
<!-- gui_views_imageviewrasterdata&#45;&gt;gui_views -->
<g id="edge10" class="edge">
<title>gui_views_imageviewrasterdata&#45;&gt;gui_views</title><style>.edge>path:hover{stroke-width:8}</style>
<path fill="none" stroke="black" d="M291.66,-150.74C319.34,-137.13 353.61,-120.27 378.69,-107.94"/>
<polygon fill="#a13535" stroke="black" points="380.04,-111.18 387.47,-103.62 376.95,-104.9 380.04,-111.18"/>
</g>
<!-- gui_views_imageviewselectionmodel -->
<g id="node10" class="node">
<title>gui_views_imageviewselectionmodel</title><style>.edge>path:hover{stroke-width:8}</style>
<ellipse fill="#b83d3d" stroke="black" cx="448.14" cy="-371.56" rx="90.33" ry="31.11"/>
<text text-anchor="middle" x="448.14" y="-380.06" font-family="Helvetica,sans-Serif" font-size="10.00" fill="#ffffff">gui.</text>
<text text-anchor="middle" x="448.14" y="-368.06" font-family="Helvetica,sans-Serif" font-size="10.00" fill="#ffffff">views.</text>
<text text-anchor="middle" x="448.14" y="-356.06" font-family="Helvetica,sans-Serif" font-size="10.00" fill="#ffffff">imageviewselectionmodel</text>
</g>
<!-- gui_views_imageviewselectionmodel&#45;&gt;gui_views_baseimageview -->
<g id="edge11" class="edge">
<title>gui_views_imageviewselectionmodel&#45;&gt;gui_views_baseimageview</title><style>.edge>path:hover{stroke-width:8}</style>
<path fill="none" stroke="black" d="M442.76,-340.12C441.39,-332.41 439.91,-324 438.47,-315.84"/>
<polygon fill="#b83d3d" stroke="black" points="441.93,-315.32 436.74,-306.08 435.04,-316.53 441.93,-315.32"/>
</g>
<!-- gui_views_imageviewstretcheditor&#45;&gt;gui_views -->
<g id="edge12" class="edge">
<title>gui_views_imageviewstretcheditor&#45;&gt;gui_views</title><style>.edge>path:hover{stroke-width:8}</style>
<path fill="none" stroke="black" d="M538.7,-150.3C509.77,-136.64 474.18,-119.83 448.29,-107.6"/>
<polygon fill="#c04040" stroke="black" points="450.09,-104.58 439.55,-103.47 447.1,-110.91 450.09,-104.58"/>
</g>
<!-- gui_widgets -->
<g id="node12" class="node">
<title>gui_widgets</title><style>.edge>path:hover{stroke-width:8}</style>
<ellipse fill="#a83838" stroke="black" cx="831.14" cy="-90" rx="39.39" ry="18"/>
<text text-anchor="middle" x="831.14" y="-86.5" font-family="Helvetica,sans-Serif" font-size="10.00" fill="#ffffff">gui.widgets</text>
</g>
<!-- gui_widgets&#45;&gt;gui_maingui -->
<g id="edge13" class="edge">
<title>gui_widgets&#45;&gt;gui_maingui</title><style>.edge>path:hover{stroke-width:8}</style>
<path fill="none" stroke="black" d="M800.3,-78.67C764.18,-66.57 704.17,-46.48 663.9,-32.99"/>
<polygon fill="#a83838" stroke="black" points="665.13,-29.71 654.54,-29.85 662.91,-36.35 665.13,-29.71"/>
</g>
<!-- gui_widgets_controlpanel -->
<g id="node13" class="node">
<title>gui_widgets_controlpanel</title><style>.edge>path:hover{stroke-width:8}</style>
<ellipse fill="#c24747" stroke="black" cx="937.14" cy="-175.11" rx="48.44" ry="31.11"/>
<text text-anchor="middle" x="937.14" y="-183.61" font-family="Helvetica,sans-Serif" font-size="10.00" fill="#ffffff">gui.</text>
<text text-anchor="middle" x="937.14" y="-171.61" font-family="Helvetica,sans-Serif" font-size="10.00" fill="#ffffff">widgets.</text>
<text text-anchor="middle" x="937.14" y="-159.61" font-family="Helvetica,sans-Serif" font-size="10.00" fill="#ffffff">controlpanel</text>
</g>
<!-- gui_widgets_controlpanel&#45;&gt;gui_widgets -->
<g id="edge14" class="edge">
<title>gui_widgets_controlpanel&#45;&gt;gui_widgets</title><style>.edge>path:hover{stroke-width:8}</style>
<path fill="none" stroke="black" d="M907.04,-150.52C891.94,-138.67 873.76,-124.42 858.98,-112.83"/>
<polygon fill="#c24747" stroke="black" points="861.49,-110.36 851.46,-106.94 857.17,-115.86 861.49,-110.36"/>
</g>
<!-- gui_widgets_mainmenubar -->
<g id="node14" class="node">
<title>gui_widgets_mainmenubar</title><style>.edge>path:hover{stroke-width:8}</style>
<ellipse fill="#c24747" stroke="black" cx="1056.14" cy="-175.11" rx="52.68" ry="31.11"/>
<text text-anchor="middle" x="1056.14" y="-183.61" font-family="Helvetica,sans-Serif" font-size="10.00" fill="#ffffff">gui.</text>
<text text-anchor="middle" x="1056.14" y="-171.61" font-family="Helvetica,sans-Serif" font-size="10.00" fill="#ffffff">widgets.</text>
<text text-anchor="middle" x="1056.14" y="-159.61" font-family="Helvetica,sans-Serif" font-size="10.00" fill="#ffffff">mainmenubar</text>
</g>
<!-- gui_widgets_mainmenubar&#45;&gt;gui_widgets -->
<g id="edge15" class="edge">
<title>gui_widgets_mainmenubar&#45;&gt;gui_widgets</title><style>.edge>path:hover{stroke-width:8}</style>
<path fill="none" stroke="black" d="M1016.81,-154.01C1009.36,-150.49 1001.57,-147 994.14,-144 954.46,-128 907.95,-113.26 874.79,-103.41"/>
<polygon fill="#c24747" stroke="black" points="876.11,-100.15 865.53,-100.69 874.14,-106.87 876.11,-100.15"/>
</g>
<!-- gui_widgets_roiwindow -->
<g id="node15" class="node">
<title>gui_widgets_roiwindow</title><style>.edge>path:hover{stroke-width:8}</style>
<ellipse fill="#c24747" stroke="black" cx="731.14" cy="-175.11" rx="42.07" ry="31.11"/>
<text text-anchor="middle" x="731.14" y="-183.61" font-family="Helvetica,sans-Serif" font-size="10.00" fill="#ffffff">gui.</text>
<text text-anchor="middle" x="731.14" y="-171.61" font-family="Helvetica,sans-Serif" font-size="10.00" fill="#ffffff">widgets.</text>
<text text-anchor="middle" x="731.14" y="-159.61" font-family="Helvetica,sans-Serif" font-size="10.00" fill="#ffffff">roiwindow</text>
</g>
<!-- gui_widgets_roiwindow&#45;&gt;gui_widgets -->
<g id="edge16" class="edge">
<title>gui_widgets_roiwindow&#45;&gt;gui_widgets</title><style>.edge>path:hover{stroke-width:8}</style>
<path fill="none" stroke="black" d="M758.73,-151.18C772.86,-139.44 790,-125.19 804.06,-113.5"/>
<polygon fill="#c24747" stroke="black" points="806.17,-116.3 811.63,-107.22 801.7,-110.92 806.17,-116.3"/>
</g>
<!-- gui_widgets_statusbar -->
<g id="node16" class="node">
<title>gui_widgets_statusbar</title><style>.edge>path:hover{stroke-width:8}</style>
<ellipse fill="#c24747" stroke="black" cx="831.14" cy="-175.11" rx="39.95" ry="31.11"/>
<text text-anchor="middle" x="831.14" y="-183.61" font-family="Helvetica,sans-Serif" font-size="10.00" fill="#ffffff">gui.</text>
<text text-anchor="middle" x="831.14" y="-171.61" font-family="Helvetica,sans-Serif" font-size="10.00" fill="#ffffff">widgets.</text>
<text text-anchor="middle" x="831.14" y="-159.61" font-family="Helvetica,sans-Serif" font-size="10.00" fill="#ffffff">statusbar</text>
</g>
<!-- gui_widgets_statusbar&#45;&gt;gui_widgets -->
<g id="edge17" class="edge">
<title>gui_widgets_statusbar&#45;&gt;gui_widgets</title><style>.edge>path:hover{stroke-width:8}</style>
<path fill="none" stroke="black" d="M831.14,-143.64C831.14,-135.85 831.14,-127.51 831.14,-119.81"/>
<polygon fill="#c24747" stroke="black" points="834.64,-119.94 831.14,-109.94 827.64,-119.94 834.64,-119.94"/>
</g>
<!-- models -->
<g id="node17" class="node">
<title>models</title><style>.edge>path:hover{stroke-width:8}</style>
<polygon fill="#0cf3f3" stroke="black" points="593.14,-609.9 590.14,-613.9 569.14,-613.9 566.14,-609.9 539.14,-609.9 539.14,-573.9 593.14,-573.9 593.14,-609.9"/>
<text text-anchor="middle" x="566.14" y="-588.4" font-family="Helvetica,sans-Serif" font-size="10.00" fill="#000000">models</text>
</g>
<!-- models&#45;&gt;gui_imageloadingmanager -->
<g id="edge18" class="edge">
<title>models&#45;&gt;gui_imageloadingmanager</title><style>.edge>path:hover{stroke-width:8}</style>
<path fill="none" stroke="black" d="M566.14,-536.9C528.6,-480.43 311.77,-548.15 263.14,-500.9 221.78,-460.72 263.95,-426.71 244.14,-372.56"/>
<path fill="none" stroke="black" d="M244.14,-370.56C227.34,-330.72 184.9,-306.55 147.14,-292.39"/>
<polygon fill="#0cf3f3" stroke="black" points="148.66,-289.22 138.06,-289.17 146.32,-295.81 148.66,-289.22"/>
<path fill="none" stroke="black" d="M570.66,-573.78C572.58,-562.67 573.01,-548.36 566.14,-537.9"/>
</g>
<!-- models&#45;&gt;gui_maingui -->
<g id="edge19" class="edge">
<title>models&#45;&gt;gui_maingui</title><style>.edge>path:hover{stroke-width:8}</style>
<path fill="none" stroke="black" d="M566.14,-468.79C493.55,-206.99 973.04,-435.91 1118.14,-206.23 1221.75,-42.2 818.45,-21.35 672.77,-19.11"/>
<polygon fill="#0cf3f3" stroke="black" points="673.08,-15.61 663.03,-18.98 672.99,-22.61 673.08,-15.61"/>
</g>
<!-- models&#45;&gt;gui_views_imageviewlist -->
<g id="edge20" class="edge">
<title>models&#45;&gt;gui_views_imageviewlist</title><style>.edge>path:hover{stroke-width:8}</style>
<path fill="none" stroke="black" d="M244.14,-272.34C236.99,-250.73 188.12,-221.42 148.86,-200.85"/>
<polygon fill="#0cf3f3" stroke="black" points="150.7,-197.86 140.21,-196.38 147.49,-204.08 150.7,-197.86"/>
<path fill="none" stroke="black" d="M244.14,-370.56C227.52,-331.16 257.57,-314.94 244.14,-274.34"/>
</g>
<!-- models&#45;&gt;gui_views_imageviewrasterdata -->
<g id="edge21" class="edge">
<title>models&#45;&gt;gui_views_imageviewrasterdata</title><style>.edge>path:hover{stroke-width:8}</style>
<path fill="none" stroke="black" d="M244.14,-272.34C238.42,-255.07 237.57,-235.09 238.47,-217.82"/>
<polygon fill="#0cf3f3" stroke="black" points="241.96,-218.11 239.23,-207.87 234.98,-217.58 241.96,-218.11"/>
</g>
<!-- models&#45;&gt;gui_views_imageviewselectionmodel -->
<g id="edge22" class="edge">
<title>models&#45;&gt;gui_views_imageviewselectionmodel</title><style>.edge>path:hover{stroke-width:8}</style>
<path fill="none" stroke="black" d="M566.14,-536.9C549.87,-512.43 573.99,-499.1 566.14,-470.79"/>
<path fill="none" stroke="black" d="M566.14,-468.79C558.28,-440.45 534.97,-418.58 511.12,-402.89"/>
<polygon fill="#0cf3f3" stroke="black" points="513.26,-400.1 502.92,-397.77 509.55,-406.04 513.26,-400.1"/>
</g>
</g>
</svg>
