<?xml version="1.0" encoding="UTF-8" standalone="no"?>
<!DOCTYPE svg PUBLIC "-//W3C//DTD SVG 1.1//EN"
 "http://www.w3.org/Graphics/SVG/1.1/DTD/svg11.dtd">
<!-- Generated by graphviz version 12.2.0 (20241103.1931)
 -->
<!-- Title: G Pages: 1 -->
<svg width="987pt" height="647pt"
 viewBox="0.00 0.00 987.33 647.19" xmlns="http://www.w3.org/2000/svg" xmlns:xlink="http://www.w3.org/1999/xlink">
<g id="graph0" class="graph" transform="scale(1 1) rotate(0) translate(4 643.19)">
<title>G</title><style>.edge>path:hover{stroke-width:8}</style>
<polygon fill="white" stroke="none" points="-4,4 -4,-643.19 983.33,-643.19 983.33,4 -4,4"/>
<!-- gui -->
<g id="node1" class="node">
<title>gui</title><style>.edge>path:hover{stroke-width:8}</style>
<ellipse fill="#c24747" stroke="black" cx="149.38" cy="-131.63" rx="27" ry="18"/>
<text text-anchor="middle" x="149.38" y="-128.13" font-family="Helvetica,sans-Serif" font-size="10.00" fill="#ffffff">gui</text>
</g>
<!-- maingui_py -->
<g id="node16" class="node">
<title>maingui_py</title><style>.edge>path:hover{stroke-width:8}</style>
<ellipse fill="#356335" stroke="black" cx="465.38" cy="-18" rx="38.03" ry="18"/>
<text text-anchor="middle" x="465.38" y="-14.5" font-family="Helvetica,sans-Serif" font-size="10.00" fill="#ffffff">maingui.py</text>
</g>
<!-- gui&#45;&gt;maingui_py -->
<g id="edge1" class="edge">
<title>gui&#45;&gt;maingui_py</title><style>.edge>path:hover{stroke-width:8}</style>
<path fill="none" stroke="black" d="M465.38,-72C464.32,-64.13 463.98,-55.54 463.99,-47.61"/>
<polygon fill="#c24747" stroke="black" points="467.48,-47.85 464.19,-37.78 460.48,-47.7 467.48,-47.85"/>
<path fill="none" stroke="black" d="M167.34,-117.86C172.89,-114.47 179.18,-111.15 185.38,-109 244.64,-88.41 473.72,-135.18 465.38,-73"/>
</g>
<!-- gui_imageloadingmanager -->
<g id="node2" class="node">
<title>gui_imageloadingmanager</title><style>.edge>path:hover{stroke-width:8}</style>
<ellipse fill="#b65353" stroke="black" cx="272.38" cy="-131.63" rx="78.14" ry="22.63"/>
<text text-anchor="middle" x="272.38" y="-134.13" font-family="Helvetica,sans-Serif" font-size="10.00" fill="#ffffff">gui.</text>
<text text-anchor="middle" x="272.38" y="-122.13" font-family="Helvetica,sans-Serif" font-size="10.00" fill="#ffffff">imageloadingmanager</text>
</g>
<!-- gui_imageloadingmanager&#45;&gt;maingui_py -->
<g id="edge2" class="edge">
<title>gui_imageloadingmanager&#45;&gt;maingui_py</title><style>.edge>path:hover{stroke-width:8}</style>
<path fill="none" stroke="black" d="M330.66,-116.13C387.82,-101.49 466.33,-80.06 465.38,-73"/>
</g>
<!-- gui_items -->
<g id="node3" class="node">
<title>gui_items</title><style>.edge>path:hover{stroke-width:8}</style>
<ellipse fill="#b65353" stroke="black" cx="476.38" cy="-417.82" rx="33.52" ry="18"/>
<text text-anchor="middle" x="476.38" y="-414.32" font-family="Helvetica,sans-Serif" font-size="10.00" fill="#ffffff">gui.items</text>
</g>
<!-- gui_views_imageviewrasterdata -->
<g id="node9" class="node">
<title>gui_views_imageviewrasterdata</title><style>.edge>path:hover{stroke-width:8}</style>
<ellipse fill="#9d4343" stroke="black" cx="465.38" cy="-221.37" rx="74.95" ry="31.11"/>
<text text-anchor="middle" x="465.38" y="-229.87" font-family="Helvetica,sans-Serif" font-size="10.00" fill="#ffffff">gui.</text>
<text text-anchor="middle" x="465.38" y="-217.87" font-family="Helvetica,sans-Serif" font-size="10.00" fill="#ffffff">views.</text>
<text text-anchor="middle" x="465.38" y="-205.87" font-family="Helvetica,sans-Serif" font-size="10.00" fill="#ffffff">imageviewrasterdata</text>
</g>
<!-- gui_items&#45;&gt;gui_views_imageviewrasterdata -->
<g id="edge3" class="edge">
<title>gui_items&#45;&gt;gui_views_imageviewrasterdata</title><style>.edge>path:hover{stroke-width:8}</style>
<path fill="none" stroke="black" d="M477.38,-318.59C471.07,-301.38 467.96,-281.41 466.46,-264.13"/>
<polygon fill="#b65353" stroke="black" points="469.96,-263.91 465.77,-254.18 462.97,-264.4 469.96,-263.91"/>
<path fill="none" stroke="black" d="M480.14,-399.51C483.63,-379.76 486.98,-346.79 477.38,-320.59"/>
</g>
<!-- gui_items_TripleImageHistogram -->
<g id="node4" class="node">
<title>gui_items_TripleImageHistogram</title><style>.edge>path:hover{stroke-width:8}</style>
<ellipse fill="#b65353" stroke="black" cx="607.38" cy="-417.82" rx="79.2" ry="31.11"/>
<text text-anchor="middle" x="607.38" y="-426.32" font-family="Helvetica,sans-Serif" font-size="10.00" fill="#ffffff">gui.</text>
<text text-anchor="middle" x="607.38" y="-414.32" font-family="Helvetica,sans-Serif" font-size="10.00" fill="#ffffff">items.</text>
<text text-anchor="middle" x="607.38" y="-402.32" font-family="Helvetica,sans-Serif" font-size="10.00" fill="#ffffff">TripleImageHistogram</text>
</g>
<!-- gui_items_TripleImageHistogram&#45;&gt;gui_views_imageviewrasterdata -->
<g id="edge4" class="edge">
<title>gui_items_TripleImageHistogram&#45;&gt;gui_views_imageviewrasterdata</title><style>.edge>path:hover{stroke-width:8}</style>
<path fill="none" stroke="black" d="M553.03,-394.74C523.27,-379.15 489.94,-354.87 477.38,-320.59"/>
</g>
<!-- gui_views -->
<g id="node5" class="node">
<title>gui_views</title><style>.edge>path:hover{stroke-width:8}</style>
<ellipse fill="#b65353" stroke="black" cx="403.38" cy="-131.63" rx="34.43" ry="18"/>
<text text-anchor="middle" x="403.38" y="-128.13" font-family="Helvetica,sans-Serif" font-size="10.00" fill="#ffffff">gui.views</text>
</g>
<!-- gui_views&#45;&gt;maingui_py -->
<g id="edge5" class="edge">
<title>gui_views&#45;&gt;maingui_py</title><style>.edge>path:hover{stroke-width:8}</style>
<path fill="none" stroke="black" d="M429.46,-119.63C447.67,-110.02 468.23,-94.26 465.38,-73"/>
</g>
<!-- gui_views_baseimageview -->
<g id="node6" class="node">
<title>gui_views_baseimageview</title><style>.edge>path:hover{stroke-width:8}</style>
<ellipse fill="#cc3333" stroke="black" cx="246.38" cy="-319.59" rx="59.04" ry="31.11"/>
<text text-anchor="middle" x="246.38" y="-328.09" font-family="Helvetica,sans-Serif" font-size="10.00" fill="#ffffff">gui.</text>
<text text-anchor="middle" x="246.38" y="-316.09" font-family="Helvetica,sans-Serif" font-size="10.00" fill="#ffffff">views.</text>
<text text-anchor="middle" x="246.38" y="-304.09" font-family="Helvetica,sans-Serif" font-size="10.00" fill="#ffffff">baseimageview</text>
</g>
<!-- gui_views_imageviewbandeditor -->
<g id="node7" class="node">
<title>gui_views_imageviewbandeditor</title><style>.edge>path:hover{stroke-width:8}</style>
<ellipse fill="#b34c4c" stroke="black" cx="258.38" cy="-221.37" rx="76.01" ry="31.11"/>
<text text-anchor="middle" x="258.38" y="-229.87" font-family="Helvetica,sans-Serif" font-size="10.00" fill="#ffffff">gui.</text>
<text text-anchor="middle" x="258.38" y="-217.87" font-family="Helvetica,sans-Serif" font-size="10.00" fill="#ffffff">views.</text>
<text text-anchor="middle" x="258.38" y="-205.87" font-family="Helvetica,sans-Serif" font-size="10.00" fill="#ffffff">imageviewbandeditor</text>
</g>
<!-- gui_views_baseimageview&#45;&gt;gui_views_imageviewbandeditor -->
<g id="edge6" class="edge">
<title>gui_views_baseimageview&#45;&gt;gui_views_imageviewbandeditor</title><style>.edge>path:hover{stroke-width:8}</style>
<path fill="none" stroke="black" d="M250.17,-288.15C251.14,-280.44 252.19,-272.03 253.2,-263.87"/>
<polygon fill="#cc3333" stroke="black" points="256.65,-264.47 254.42,-254.12 249.71,-263.61 256.65,-264.47"/>
</g>
<!-- gui_views_baseimageview&#45;&gt;gui_views_imageviewrasterdata -->
<g id="edge7" class="edge">
<title>gui_views_baseimageview&#45;&gt;gui_views_imageviewrasterdata</title><style>.edge>path:hover{stroke-width:8}</style>
<path fill="none" stroke="black" d="M290.99,-298.8C298.78,-295.36 306.82,-291.81 314.38,-288.48 343.99,-275.44 376.9,-261.03 404.41,-248.99"/>
<polygon fill="#cc3333" stroke="black" points="405.53,-252.32 413.29,-245.11 402.73,-245.91 405.53,-252.32"/>
</g>
<!-- gui_views_imageviewstretcheditor -->
<g id="node10" class="node">
<title>gui_views_imageviewstretcheditor</title><style>.edge>path:hover{stroke-width:8}</style>
<ellipse fill="#b34c4c" stroke="black" cx="82.38" cy="-221.37" rx="82.38" ry="31.11"/>
<text text-anchor="middle" x="82.38" y="-229.87" font-family="Helvetica,sans-Serif" font-size="10.00" fill="#ffffff">gui.</text>
<text text-anchor="middle" x="82.38" y="-217.87" font-family="Helvetica,sans-Serif" font-size="10.00" fill="#ffffff">views.</text>
<text text-anchor="middle" x="82.38" y="-205.87" font-family="Helvetica,sans-Serif" font-size="10.00" fill="#ffffff">imageviewstretcheditor</text>
</g>
<!-- gui_views_baseimageview&#45;&gt;gui_views_imageviewstretcheditor -->
<g id="edge8" class="edge">
<title>gui_views_baseimageview&#45;&gt;gui_views_imageviewstretcheditor</title><style>.edge>path:hover{stroke-width:8}</style>
<path fill="none" stroke="black" d="M207.51,-295.79C186.13,-283.24 159.28,-267.49 135.93,-253.79"/>
<polygon fill="#cc3333" stroke="black" points="137.87,-250.87 127.47,-248.83 134.33,-256.91 137.87,-250.87"/>
</g>
<!-- gui_views_imageviewbandeditor&#45;&gt;maingui_py -->
<g id="edge9" class="edge">
<title>gui_views_imageviewbandeditor&#45;&gt;maingui_py</title><style>.edge>path:hover{stroke-width:8}</style>
<path fill="none" stroke="black" d="M316.19,-200.83C369.31,-182.75 440.67,-158.11 446.38,-154.25 456.98,-147.09 459.88,-144.18 465.38,-132.63"/>
</g>
<!-- gui_views_imageviewlist -->
<g id="node8" class="node">
<title>gui_views_imageviewlist</title><style>.edge>path:hover{stroke-width:8}</style>
<ellipse fill="#ac4949" stroke="black" cx="376.38" cy="-319.59" rx="53.21" ry="31.11"/>
<text text-anchor="middle" x="376.38" y="-328.09" font-family="Helvetica,sans-Serif" font-size="10.00" fill="#ffffff">gui.</text>
<text text-anchor="middle" x="376.38" y="-316.09" font-family="Helvetica,sans-Serif" font-size="10.00" fill="#ffffff">views.</text>
<text text-anchor="middle" x="376.38" y="-304.09" font-family="Helvetica,sans-Serif" font-size="10.00" fill="#ffffff">imageviewlist</text>
</g>
<!-- gui_views_imageviewlist&#45;&gt;maingui_py -->
<g id="edge10" class="edge">
<title>gui_views_imageviewlist&#45;&gt;maingui_py</title><style>.edge>path:hover{stroke-width:8}</style>
<path fill="none" stroke="black" d="M369.68,-288.44C365.26,-260.79 363.2,-219.78 381.38,-190.25 398.69,-162.14 420.66,-174.97 446.38,-154.25 456.34,-146.23 459.88,-144.18 465.38,-132.63"/>
</g>
<!-- gui_views_imageviewrasterdata&#45;&gt;maingui_py -->
<g id="edge11" class="edge">
<title>gui_views_imageviewrasterdata&#45;&gt;maingui_py</title><style>.edge>path:hover{stroke-width:8}</style>
<path fill="none" stroke="black" d="M459.14,-190.11C457,-172.51 456.93,-150.37 465.38,-132.63"/>
</g>
<!-- gui_views_imageviewstretcheditor&#45;&gt;maingui_py -->
<g id="edge12" class="edge">
<title>gui_views_imageviewstretcheditor&#45;&gt;maingui_py</title><style>.edge>path:hover{stroke-width:8}</style>
<path fill="none" stroke="black" d="M465.38,-130.63C476.38,-107.5 468.79,-98.38 465.38,-73"/>
<path fill="none" stroke="black" d="M141.15,-199.13C151.78,-195.8 162.83,-192.67 173.38,-190.25 292.67,-162.91 338.43,-211.91 446.38,-154.25 457.66,-148.23 459.88,-144.18 465.38,-132.63"/>
</g>
<!-- gui_widgets -->
<g id="node11" class="node">
<title>gui_widgets</title><style>.edge>path:hover{stroke-width:8}</style>
<ellipse fill="#9d4343" stroke="black" cx="715.38" cy="-131.63" rx="39.39" ry="18"/>
<text text-anchor="middle" x="715.38" y="-128.13" font-family="Helvetica,sans-Serif" font-size="10.00" fill="#ffffff">gui.widgets</text>
</g>
<!-- gui_widgets&#45;&gt;maingui_py -->
<g id="edge13" class="edge">
<title>gui_widgets&#45;&gt;maingui_py</title><style>.edge>path:hover{stroke-width:8}</style>
<path fill="none" stroke="black" d="M675.76,-129.5C606.7,-126.43 471.02,-115.05 465.38,-73"/>
</g>
<!-- gui_widgets_controlpanel -->
<g id="node12" class="node">
<title>gui_widgets_controlpanel</title><style>.edge>path:hover{stroke-width:8}</style>
<ellipse fill="#c24747" stroke="black" cx="606.38" cy="-221.37" rx="48.44" ry="31.11"/>
<text text-anchor="middle" x="606.38" y="-229.87" font-family="Helvetica,sans-Serif" font-size="10.00" fill="#ffffff">gui.</text>
<text text-anchor="middle" x="606.38" y="-217.87" font-family="Helvetica,sans-Serif" font-size="10.00" fill="#ffffff">widgets.</text>
<text text-anchor="middle" x="606.38" y="-205.87" font-family="Helvetica,sans-Serif" font-size="10.00" fill="#ffffff">controlpanel</text>
</g>
<!-- gui_widgets_controlpanel&#45;&gt;gui_widgets -->
<g id="edge14" class="edge">
<title>gui_widgets_controlpanel&#45;&gt;gui_widgets</title><style>.edge>path:hover{stroke-width:8}</style>
<path fill="none" stroke="black" d="M636.16,-196.39C652.29,-183.41 672.07,-167.49 687.84,-154.8"/>
<polygon fill="#c24747" stroke="black" points="689.82,-157.69 695.41,-148.7 685.43,-152.24 689.82,-157.69"/>
</g>
<!-- gui_widgets_controlpanel&#45;&gt;maingui_py -->
<g id="edge15" class="edge">
<title>gui_widgets_controlpanel&#45;&gt;maingui_py</title><style>.edge>path:hover{stroke-width:8}</style>
<path fill="none" stroke="black" d="M570.31,-200.25C527.66,-176.13 462.71,-138.24 465.38,-132.63"/>
</g>
<!-- gui_widgets_mainmenubar -->
<g id="node13" class="node">
<title>gui_widgets_mainmenubar</title><style>.edge>path:hover{stroke-width:8}</style>
<ellipse fill="#c24747" stroke="black" cx="828.38" cy="-221.37" rx="52.68" ry="31.11"/>
<text text-anchor="middle" x="828.38" y="-229.87" font-family="Helvetica,sans-Serif" font-size="10.00" fill="#ffffff">gui.</text>
<text text-anchor="middle" x="828.38" y="-217.87" font-family="Helvetica,sans-Serif" font-size="10.00" fill="#ffffff">widgets.</text>
<text text-anchor="middle" x="828.38" y="-205.87" font-family="Helvetica,sans-Serif" font-size="10.00" fill="#ffffff">mainmenubar</text>
</g>
<!-- gui_widgets_mainmenubar&#45;&gt;gui_widgets -->
<g id="edge16" class="edge">
<title>gui_widgets_mainmenubar&#45;&gt;gui_widgets</title><style>.edge>path:hover{stroke-width:8}</style>
<path fill="none" stroke="black" d="M796.9,-195.93C780.2,-182.96 759.83,-167.15 743.64,-154.57"/>
<polygon fill="#c24747" stroke="black" points="745.89,-151.88 735.84,-148.52 741.59,-157.41 745.89,-151.88"/>
</g>
<!-- gui_widgets_mainmenubar&#45;&gt;maingui_py -->
<g id="edge17" class="edge">
<title>gui_widgets_mainmenubar&#45;&gt;maingui_py</title><style>.edge>path:hover{stroke-width:8}</style>
<path fill="none" stroke="black" d="M860.1,-196.26C880.6,-177.8 900.53,-152.26 883.38,-132.63"/>
<path fill="none" stroke="black" d="M883.38,-130.63C847.73,-89.81 816.97,-117.06 763.38,-109 730.4,-104.04 469.82,-106.06 465.38,-73"/>
</g>
<!-- gui_widgets_roiwindow -->
<g id="node14" class="node">
<title>gui_widgets_roiwindow</title><style>.edge>path:hover{stroke-width:8}</style>
<ellipse fill="#b65353" stroke="black" cx="715.38" cy="-221.37" rx="42.07" ry="31.11"/>
<text text-anchor="middle" x="715.38" y="-229.87" font-family="Helvetica,sans-Serif" font-size="10.00" fill="#ffffff">gui.</text>
<text text-anchor="middle" x="715.38" y="-217.87" font-family="Helvetica,sans-Serif" font-size="10.00" fill="#ffffff">widgets.</text>
<text text-anchor="middle" x="715.38" y="-205.87" font-family="Helvetica,sans-Serif" font-size="10.00" fill="#ffffff">roiwindow</text>
</g>
<!-- gui_widgets_roiwindow&#45;&gt;gui_widgets -->
<g id="edge18" class="edge">
<title>gui_widgets_roiwindow&#45;&gt;gui_widgets</title><style>.edge>path:hover{stroke-width:8}</style>
<path fill="none" stroke="black" d="M715.38,-190.17C715.38,-180.87 715.38,-170.65 715.38,-161.44"/>
<polygon fill="#b65353" stroke="black" points="718.88,-161.59 715.38,-151.59 711.88,-161.59 718.88,-161.59"/>
</g>
<!-- gui_widgets_statusbar -->
<g id="node15" class="node">
<title>gui_widgets_statusbar</title><style>.edge>path:hover{stroke-width:8}</style>
<ellipse fill="#c24747" stroke="black" cx="939.38" cy="-221.37" rx="39.95" ry="31.11"/>
<text text-anchor="middle" x="939.38" y="-229.87" font-family="Helvetica,sans-Serif" font-size="10.00" fill="#ffffff">gui.</text>
<text text-anchor="middle" x="939.38" y="-217.87" font-family="Helvetica,sans-Serif" font-size="10.00" fill="#ffffff">widgets.</text>
<text text-anchor="middle" x="939.38" y="-205.87" font-family="Helvetica,sans-Serif" font-size="10.00" fill="#ffffff">statusbar</text>
</g>
<!-- gui_widgets_statusbar&#45;&gt;gui_widgets -->
<g id="edge19" class="edge">
<title>gui_widgets_statusbar&#45;&gt;gui_widgets</title><style>.edge>path:hover{stroke-width:8}</style>
<path fill="none" stroke="black" d="M909.41,-200.44C903.25,-196.78 896.72,-193.2 890.38,-190.25 847.52,-170.36 795.85,-154.24 759.82,-144.16"/>
<polygon fill="#c24747" stroke="black" points="761.19,-140.91 750.62,-141.63 759.33,-147.66 761.19,-140.91"/>
</g>
<!-- gui_widgets_statusbar&#45;&gt;maingui_py -->
<g id="edge20" class="edge">
<title>gui_widgets_statusbar&#45;&gt;maingui_py</title><style>.edge>path:hover{stroke-width:8}</style>
<path fill="none" stroke="black" d="M924.43,-192.41C914.12,-174.4 899.43,-151 883.38,-132.63"/>
</g>
<!-- models -->
<g id="node17" class="node">
<title>models</title><style>.edge>path:hover{stroke-width:8}</style>
<ellipse fill="#4040c0" stroke="black" cx="357.38" cy="-539.93" rx="28.56" ry="18"/>
<text text-anchor="middle" x="357.38" y="-536.43" font-family="Helvetica,sans-Serif" font-size="10.00" fill="#ffffff">models</text>
</g>
<!-- models&#45;&gt;gui_views_baseimageview -->
<g id="edge21" class="edge">
<title>models&#45;&gt;gui_views_baseimageview</title><style>.edge>path:hover{stroke-width:8}</style>
<path fill="none" stroke="black" d="M376.38,-416.82C370.55,-397.46 330.17,-369.45 295.93,-348.63"/>
<polygon fill="#4040c0" stroke="black" points="298.15,-345.88 287.77,-343.74 294.55,-351.88 298.15,-345.88"/>
<path fill="none" stroke="black" d="M364.61,-522.3C373.79,-498.82 387.21,-454.8 376.38,-418.82"/>
</g>
<!-- models&#45;&gt;gui_views_imageviewlist -->
<g id="edge22" class="edge">
<title>models&#45;&gt;gui_views_imageviewlist</title><style>.edge>path:hover{stroke-width:8}</style>
<path fill="none" stroke="black" d="M376.38,-416.82C371.14,-399.4 370.35,-379.39 371.18,-362.15"/>
<polygon fill="#4040c0" stroke="black" points="374.67,-362.45 371.88,-352.23 367.69,-361.96 374.67,-362.45"/>
</g>
<!-- models_imagedatatype -->
<g id="node18" class="node">
<title>models_imagedatatype</title><style>.edge>path:hover{stroke-width:8}</style>
<ellipse fill="#4747c2" stroke="black" cx="385.38" cy="-616.56" rx="56.39" ry="22.63"/>
<text text-anchor="middle" x="385.38" y="-619.06" font-family="Helvetica,sans-Serif" font-size="10.00" fill="#ffffff">models.</text>
<text text-anchor="middle" x="385.38" y="-607.06" font-family="Helvetica,sans-Serif" font-size="10.00" fill="#ffffff">imagedatatype</text>
</g>
<!-- models_imagedatatype&#45;&gt;gui_views_imageviewlist -->
<g id="edge23" class="edge">
<title>models_imagedatatype&#45;&gt;gui_views_imageviewlist</title><style>.edge>path:hover{stroke-width:8}</style>
<path fill="none" stroke="black" d="M390.07,-593.78C392.14,-583.05 394.35,-569.87 395.38,-557.93 399.01,-515.78 396.77,-438.45 390.38,-386.71 389.38,-378.63 387.9,-370.08 386.26,-361.91"/>
<polygon fill="#4747c2" stroke="black" points="389.7,-361.23 384.2,-352.17 382.85,-362.68 389.7,-361.23"/>
</g>
<!-- models_imagedatatype&#45;&gt;models -->
<g id="edge24" class="edge">
<title>models_imagedatatype&#45;&gt;models</title><style>.edge>path:hover{stroke-width:8}</style>
<path fill="none" stroke="black" d="M377.28,-593.97C374.27,-585.95 370.81,-576.74 367.64,-568.27"/>
<polygon fill="#4747c2" stroke="black" points="371,-567.28 364.21,-559.15 364.45,-569.74 371,-567.28"/>
</g>
</g>
</svg>
